<svg xmlns="http://www.w3.org/2000/svg" viewBox="10 0 250 65" fill="none">
	<path d="M 10 0 L 10 65 L 60 10 L 70 0 L 50 0 L 20 30 L 20 0 Z M 50 30 L 50 65 L 60 65 L 60 20 Z M 65 15 L 65 65 L 75 65 L 75 20 L 86 10 L 245 10 L 255 0 L 80 0 Z M 100 15 L 80 35 L 80 55 C 80 55 80 65 90 65 L 115 65 C 125 65 125 55 125 55 L 125 65 L 135 65 L 135 25 C 135 25 135 15 126 15 Z M 90 45 L 125 45 L 125 55 L 90 55 Z M 90 25 L 125 25 L 125 35 L 90 35 Z M 140 25 L 180 25 L 140 55 L 140 65 L 185 65 L 185 55 L 170 55 L 170 50 L 205 15 L 140 15 Z M 210 15 L 190 35 L 190 55 C 190 65 200 65 200 65 L 225 65 C 235 65 235 55 235 55 L 235 65 L 245 65 L 245 25 C 245 25 245 15 235 15 Z M 200 45 L 235 45 L 235 55 L 200 55 Z M 200 25 L 235 25 L 235 35 L 200 35 Z" fill="#000000"/>
</svg>				